<svg width="339" height="84" viewBox="0 0 339 84" fill="none" xmlns="http://www.w3.org/2000/svg">
<path d="M36.35 61.85L35.9 62.4C35.6 62.7333 35.0667 63.1667 34.3 63.7C33.5667 64.2 32.6667 64.7167 31.6 65.25C30.5667 65.75 29.1667 66.1667 27.4 66.5C25.6667 66.8667 23.8 67.05 21.8 67.05C15.0333 67.05 9.85 65.0667 6.25 61.1C2.68333 57.1333 0.9 51.8833 0.9 45.35C0.9 41.8167 1.45 38.6 2.55 35.7C3.65 32.8 5.15 30.4 7.05 28.5C8.98333 26.5667 11.2333 25.0833 13.8 24.05C16.4 22.9833 19.2 22.45 22.2 22.45C28 22.45 32.5 23.8333 35.7 26.6C36.4 27.3 36.75 27.65 36.75 27.65L36 39.4L28.9 39.45L26.05 31.8C25.7833 31.7333 25.4167 31.7 24.95 31.7C21.9167 31.7 19.8167 32.75 18.65 34.85C17.5167 36.9167 16.95 40.5167 16.95 45.65C16.95 47.8833 17.1333 49.8 17.5 51.4C17.8667 52.9667 18.2833 54.15 18.75 54.95C19.2167 55.7167 19.8333 56.3167 20.6 56.75C21.4 57.1833 22.05 57.4333 22.55 57.5C23.05 57.5667 23.6667 57.6 24.4 57.6C26.0667 57.6 27.7667 57.4 29.5 57C31.2667 56.6 32.7167 55.95 33.85 55.05L36.35 61.85ZM57.2184 66H41.0184V9.45L38.0184 7.65V3L54.0684 0.5H57.3184V29.95L57.9184 29.2C58.3184 28.6667 58.9017 28.0333 59.6684 27.3C60.4684 26.5667 61.3517 25.85 62.3184 25.15C63.285 24.4167 64.435 23.8 65.7684 23.3C67.135 22.7667 68.4684 22.5 69.7684 22.5C74.335 22.5 77.5517 23.75 79.4184 26.25C81.3184 28.75 82.2684 32.9333 82.2684 38.8C82.2684 39 82.2684 39.3 82.2684 39.7C82.235 40.1 82.2184 40.4167 82.2184 40.65V66H65.7184V39.2C65.8184 36.0667 64.485 34.5 61.7184 34.5C61.4517 34.5 61.185 34.5167 60.9184 34.55C60.685 34.5833 60.435 34.6667 60.1684 34.8C59.9017 34.9333 59.685 35.0333 59.5184 35.1C59.385 35.1667 59.1684 35.3 58.8684 35.5C58.6017 35.7 58.4184 35.8333 58.3184 35.9C58.2517 35.9667 58.0517 36.1333 57.7184 36.4C57.4184 36.6667 57.2517 36.8167 57.2184 36.85V66ZM110.047 61.55L109.547 62.1C109.214 62.5 108.697 62.9667 107.997 63.5C107.33 64.0333 106.547 64.5667 105.647 65.1C104.78 65.6333 103.714 66.0833 102.447 66.45C101.18 66.85 99.8802 67.05 98.5469 67.05C89.5469 67.05 85.0469 62.6 85.0469 53.7C85.0469 51.9667 85.3635 50.3833 85.9969 48.95C86.6302 47.4833 87.4469 46.25 88.4469 45.25C89.4469 44.25 90.6469 43.3667 92.0469 42.6C93.4469 41.8 94.8469 41.1833 96.2469 40.75C97.6802 40.2833 99.1802 39.9 100.747 39.6C102.314 39.3 103.714 39.1 104.947 39C106.18 38.9 107.364 38.85 108.497 38.85V37.95C108.497 35.9167 107.947 34.4833 106.847 33.65C105.78 32.8167 104.047 32.4 101.647 32.4C99.5802 32.4 97.4302 32.65 95.1969 33.15C92.9635 33.6167 91.2135 34.1833 89.9469 34.85L86.7469 28.05C89.0135 26.5833 91.9635 25.3 95.5969 24.2C99.2302 23.0667 102.93 22.5 106.697 22.5C110.03 22.5 112.78 22.8333 114.947 23.5C117.114 24.1333 118.864 25.2333 120.197 26.8C121.564 28.3333 122.53 30.3 123.097 32.7C123.664 35.0667 123.947 38.0833 123.947 41.75V62.1L125.347 66H111.647L110.047 61.55ZM106.097 58.25C106.53 58.25 106.93 58.1667 107.297 58C107.697 57.8 107.997 57.6167 108.197 57.45C108.397 57.25 108.497 57.15 108.497 57.15V45.15C106.464 45.15 104.847 45.7167 103.647 46.85C102.447 47.95 101.847 49.6667 101.847 52C101.847 56.1667 103.264 58.25 106.097 58.25ZM142.041 67.05C137.541 67.05 134.391 65.7 132.591 63C130.825 60.3 129.941 55.7333 129.941 49.3V32.3H126.491V25.35L132.391 23.5L137.491 11.85H146.291V23.5H154.491V32.3H146.141V50.9C146.141 53.5667 146.525 55.3333 147.291 56.2C148.058 57.0667 149.241 57.5 150.841 57.5C151.541 57.5 152.175 57.4167 152.741 57.25C153.308 57.0833 153.775 56.85 154.141 56.55V63.35C153.641 63.85 152.991 64.35 152.191 64.85C151.391 65.3167 150.058 65.8 148.191 66.3C146.358 66.8 144.308 67.05 142.041 67.05Z" fill="#521110"/>
<path d="M174.906 66H158.356V7.4H164.956C166.723 7.4 169.389 7.33333 172.956 7.2C176.523 7.03334 179.456 6.95 181.756 6.95C188.223 6.95 193.123 8.66667 196.456 12.1C199.789 15.5333 201.456 20.6833 201.456 27.55C201.456 31.6833 200.906 35.45 199.806 38.85C198.739 42.2167 197.289 44.9833 195.456 47.15C193.623 49.3167 191.539 50.9833 189.206 52.15C186.873 53.3167 184.406 53.9 181.806 53.9C181.473 53.9 181.123 53.9 180.756 53.9C180.423 53.9 180.106 53.9 179.806 53.9C179.539 53.8667 179.206 53.85 178.806 53.85C178.439 53.8167 178.139 53.8 177.906 53.8C177.706 53.7667 177.406 53.75 177.006 53.75C176.639 53.7167 176.389 53.7 176.256 53.7C176.123 53.7 175.873 53.6833 175.506 53.65C175.139 53.6167 174.939 53.6 174.906 53.6V66ZM185.056 25.35C185.056 22.8833 184.389 20.8833 183.056 19.35C181.723 17.8167 179.806 17.05 177.306 17.05H174.906V43.05H176.756C179.389 43.05 181.423 42.1667 182.856 40.4C184.323 38.6333 185.056 36.0833 185.056 32.75V25.35Z" fill="#D73227"/>
<path d="M227.381 61.55L226.881 62.1C226.548 62.5 226.031 62.9667 225.331 63.5C224.664 64.0333 223.881 64.5667 222.981 65.1C222.114 65.6333 221.048 66.0833 219.781 66.45C218.514 66.85 217.214 67.05 215.881 67.05C206.881 67.05 202.381 62.6 202.381 53.7C202.381 51.9667 202.698 50.3833 203.331 48.95C203.964 47.4833 204.781 46.25 205.781 45.25C206.781 44.25 207.981 43.3667 209.381 42.6C210.781 41.8 212.181 41.1833 213.581 40.75C215.014 40.2833 216.514 39.9 218.081 39.6C219.648 39.3 221.048 39.1 222.281 39C223.514 38.9 224.698 38.85 225.831 38.85V37.95C225.831 35.9167 225.281 34.4833 224.181 33.65C223.114 32.8167 221.381 32.4 218.981 32.4C216.914 32.4 214.764 32.65 212.531 33.15C210.298 33.6167 208.548 34.1833 207.281 34.85L204.081 28.05C206.348 26.5833 209.298 25.3 212.931 24.2C216.564 23.0667 220.264 22.5 224.031 22.5C227.364 22.5 230.114 22.8333 232.281 23.5C234.448 24.1333 236.198 25.2333 237.531 26.8C238.898 28.3333 239.864 30.3 240.431 32.7C240.998 35.0667 241.281 38.0833 241.281 41.75V62.1L242.681 66H228.981L227.381 61.55ZM223.431 58.25C223.864 58.25 224.264 58.1667 224.631 58C225.031 57.8 225.331 57.6167 225.531 57.45C225.731 57.25 225.831 57.15 225.831 57.15V45.15C223.798 45.15 222.181 45.7167 220.981 46.85C219.781 47.95 219.181 49.6667 219.181 52C219.181 56.1667 220.598 58.25 223.431 58.25Z" fill="#E99923"/>
<path d="M263.825 66H247.675V33.65L244.675 31.8V26.45L255.425 23.5H263.925V29.95L264.525 29.2C264.925 28.6667 265.509 28.0333 266.275 27.3C267.075 26.5667 267.959 25.85 268.925 25.15C269.892 24.4167 271.042 23.8 272.375 23.3C273.742 22.7667 275.075 22.5 276.375 22.5C280.942 22.5 284.159 23.75 286.025 26.25C287.925 28.75 288.875 32.9333 288.875 38.8C288.875 39 288.875 39.3 288.875 39.7C288.842 40.1 288.825 40.4167 288.825 40.65V66H272.325V39.2C272.425 36.0667 271.092 34.5 268.325 34.5C268.125 34.5 267.925 34.5167 267.725 34.55C267.559 34.5833 267.392 34.6167 267.225 34.65C267.092 34.6833 266.925 34.75 266.725 34.85C266.559 34.9167 266.409 34.9833 266.275 35.05C266.142 35.0833 265.992 35.1667 265.825 35.3C265.659 35.4 265.525 35.4833 265.425 35.55C265.325 35.6167 265.175 35.7333 264.975 35.9C264.809 36.0333 264.675 36.1333 264.575 36.2C264.509 36.2667 264.375 36.3833 264.175 36.55C264.009 36.6833 263.892 36.7833 263.825 36.85V66Z" fill="#92BA3E"/>
<path d="M314.386 83.65C311.786 83.65 308.853 83.05 305.586 81.85C302.32 80.6833 300.203 79.5667 299.236 78.5L302.386 71.65C303.22 72.2833 304.57 72.8667 306.436 73.4C308.303 73.9333 309.903 74.2 311.236 74.2C312.57 74.2 313.72 74.0167 314.686 73.65C315.686 73.3167 316.453 72.8833 316.986 72.35C317.52 71.85 317.953 71.2167 318.286 70.45C318.62 69.7167 318.82 69.05 318.886 68.45C318.986 67.85 319.053 67.1833 319.086 66.45V62.2C316.253 65.1333 312.803 66.6 308.736 66.6C303.236 66.6 299.203 64.7167 296.636 60.95C294.07 57.1833 292.786 51.95 292.786 45.25C292.786 42.1167 293.136 39.2333 293.836 36.6C294.536 33.9333 295.553 31.6 296.886 29.6C298.253 27.5667 300.02 25.9833 302.186 24.85C304.353 23.6833 306.803 23.1 309.536 23.1C313.67 23.1 317.253 24.0167 320.286 25.85L321.136 23.5H328.786L338.186 23.95V28.65L335.186 30.75V64.15C335.186 77.15 328.253 83.65 314.386 83.65ZM315.986 57.5C316.986 57.5 318.02 57.2167 319.086 56.65V30.3C318.286 30.1333 317.553 30.05 316.886 30.05C312.453 30.0833 310.22 33.5 310.186 40.3V48.05C310.186 50.1833 310.47 52.0167 311.036 53.55C312.036 56.1833 313.686 57.5 315.986 57.5Z" fill="#50A3D9"/>
</svg>
