<svg width="308" height="68" viewBox="0 0 308 68" fill="none" xmlns="http://www.w3.org/2000/svg">
<path d="M25.5 61.55L25 62.1C24.6667 62.5 24.15 62.9667 23.45 63.5C22.7833 64.0333 22 64.5667 21.1 65.1C20.2333 65.6333 19.1667 66.0833 17.9 66.45C16.6333 66.85 15.3333 67.05 14 67.05C5 67.05 0.5 62.6 0.5 53.7C0.5 51.9667 0.816667 50.3833 1.45 48.95C2.08333 47.4833 2.9 46.25 3.9 45.25C4.9 44.25 6.1 43.3667 7.5 42.6C8.9 41.8 10.3 41.1833 11.7 40.75C13.1333 40.2833 14.6333 39.9 16.2 39.6C17.7667 39.3 19.1667 39.1 20.4 39C21.6333 38.9 22.8167 38.85 23.95 38.85V37.95C23.95 35.9167 23.4 34.4833 22.3 33.65C21.2333 32.8167 19.5 32.4 17.1 32.4C15.0333 32.4 12.8833 32.65 10.65 33.15C8.41667 33.6167 6.66667 34.1833 5.4 34.85L2.2 28.05C4.46667 26.5833 7.41667 25.3 11.05 24.2C14.6833 23.0667 18.3833 22.5 22.15 22.5C25.4833 22.5 28.2333 22.8333 30.4 23.5C32.5667 24.1333 34.3167 25.2333 35.65 26.8C37.0167 28.3333 37.9833 30.3 38.55 32.7C39.1167 35.0667 39.4 38.0833 39.4 41.75V62.1L40.8 66H27.1L25.5 61.55ZM21.55 58.25C21.9833 58.25 22.3833 58.1667 22.75 58C23.15 57.8 23.45 57.6167 23.65 57.45C23.85 57.25 23.95 57.15 23.95 57.15V45.15C21.9167 45.15 20.3 45.7167 19.1 46.85C17.9 47.95 17.3 49.6667 17.3 52C17.3 56.1667 18.7167 58.25 21.55 58.25ZM45.7945 66V33.65L42.7945 31.8V26.45L53.5445 23.5H61.8945V66H45.7945ZM53.0445 18.9L44.8445 10.65V8.9L53.0445 0.699999H54.9445L63.4945 8.9V10.65L54.9445 18.9H53.0445Z" fill="#521110"/>
<path d="M85.6926 67.05C83.1259 67.05 80.7259 66.8167 78.4926 66.35C76.2926 65.9167 74.4426 65.3333 72.9426 64.6C71.4426 63.8667 70.2092 63.1667 69.2426 62.5C68.3092 61.8333 67.5259 61.1667 66.8926 60.5L68.1426 48.35C69.5092 50.1833 71.3426 51.7833 73.6426 53.15C75.9426 54.4833 78.4259 55.15 81.0926 55.15C83.7592 55.15 85.6759 54.8667 86.8426 54.3C88.0426 53.7333 88.6426 52.7 88.6426 51.2C88.6426 49.6 87.9592 48.2333 86.5926 47.1C85.2592 45.9667 82.9426 44.6 79.6426 43C78.4426 42.4 77.4259 41.8667 76.5926 41.4C75.7592 40.9 74.6426 40.1 73.2426 39C71.8759 37.8667 70.7592 36.7 69.8926 35.5C69.0259 34.2667 68.2592 32.7 67.5926 30.8C66.9259 28.8667 66.5926 26.8 66.5926 24.6C66.5926 12.7 73.3092 6.75 86.7426 6.75C88.8759 6.75 90.8759 6.98334 92.7426 7.45C94.6426 7.88333 96.1259 8.36667 97.1926 8.9C98.2592 9.43333 99.2259 10.0667 100.093 10.8C100.993 11.5 101.559 12 101.793 12.3C102.026 12.5667 102.193 12.7833 102.293 12.95L99.7926 22.6C98.4926 21.0667 96.8592 19.9333 94.8926 19.2C92.9592 18.4333 91.1092 18.05 89.3426 18.05C85.0759 18.05 82.9426 19.3833 82.9426 22.05C82.9426 22.75 83.0759 23.3833 83.3426 23.95C83.6092 24.5167 84.0426 25.0333 84.6426 25.5C85.2426 25.9667 85.7926 26.3667 86.2926 26.7C86.8259 27.0333 87.5426 27.45 88.4426 27.95C89.3759 28.4167 90.0759 28.8 90.5426 29.1C95.4092 31.1667 98.9759 33.6167 101.243 36.45C103.543 39.2833 104.693 42.7333 104.693 46.8C104.693 53.4 103.059 58.4333 99.7926 61.9C96.5592 65.3333 91.8592 67.05 85.6926 67.05ZM261.911 61.85L261.461 62.4C261.161 62.7333 260.627 63.1667 259.861 63.7C259.127 64.2 258.227 64.7167 257.161 65.25C256.127 65.75 254.727 66.1667 252.961 66.5C251.227 66.8667 249.361 67.05 247.361 67.05C240.594 67.05 235.411 65.0667 231.811 61.1C228.244 57.1333 226.461 51.8833 226.461 45.35C226.461 41.8167 227.011 38.6 228.111 35.7C229.211 32.8 230.711 30.4 232.611 28.5C234.544 26.5667 236.794 25.0833 239.361 24.05C241.961 22.9833 244.761 22.45 247.761 22.45C253.561 22.45 258.061 23.8333 261.261 26.6C261.961 27.3 262.311 27.65 262.311 27.65L261.561 39.4L254.461 39.45L251.611 31.8C251.344 31.7333 250.977 31.7 250.511 31.7C247.477 31.7 245.377 32.75 244.211 34.85C243.077 36.9167 242.511 40.5167 242.511 45.65C242.511 47.8833 242.694 49.8 243.061 51.4C243.427 52.9667 243.844 54.15 244.311 54.95C244.777 55.7167 245.394 56.3167 246.161 56.75C246.961 57.1833 247.611 57.4333 248.111 57.5C248.611 57.5667 249.227 57.6 249.961 57.6C251.627 57.6 253.327 57.4 255.061 57C256.827 56.6 258.277 55.95 259.411 55.05L261.911 61.85Z" fill="#50A3D9"/>
<path d="M132.991 40.15C132.991 35.9167 132.774 32.9167 132.341 31.15C131.907 29.3833 131.107 28.5 129.941 28.5C128.941 28.5 128.124 28.6833 127.491 29.05C126.857 29.3833 126.391 29.9333 126.091 30.7C125.791 31.4333 125.591 32.2 125.491 33C125.424 33.7667 125.391 34.75 125.391 35.95V40.15H132.991ZM128.991 67.05C125.257 67.05 122.007 66.4833 119.241 65.35C116.507 64.2167 114.341 62.6333 112.741 60.6C111.174 58.5667 110.024 56.2833 109.291 53.75C108.557 51.1833 108.191 48.3333 108.191 45.2C108.191 37.7333 110.091 32.0833 113.891 28.25C117.691 24.4167 123.007 22.5 129.841 22.5C136.407 22.5 141.107 24.05 143.941 27.15C146.774 30.2167 148.191 35.1667 148.191 42V47.55H125.341V48.5C125.341 50.4667 125.541 52.0833 125.941 53.35C126.374 54.6167 126.991 55.55 127.791 56.15C128.591 56.75 129.407 57.15 130.241 57.35C131.074 57.55 132.091 57.65 133.291 57.65C134.457 57.65 135.707 57.5 137.041 57.2C138.407 56.9 139.774 56.4333 141.141 55.8C142.541 55.1667 143.707 54.4167 144.641 53.55L147.591 58.6C146.357 60.6 144.541 62.2833 142.141 63.65C139.774 64.9833 137.491 65.8833 135.291 66.35C133.091 66.8167 130.991 67.05 128.991 67.05ZM282.779 66H266.579V9.45L263.579 7.65V3L279.629 0.5H282.879V29.95L283.479 29.2C283.879 28.6667 284.462 28.0333 285.229 27.3C286.029 26.5667 286.912 25.85 287.879 25.15C288.846 24.4167 289.996 23.8 291.329 23.3C292.696 22.7667 294.029 22.5 295.329 22.5C299.896 22.5 303.112 23.75 304.979 26.25C306.879 28.75 307.829 32.9333 307.829 38.8C307.829 39 307.829 39.3 307.829 39.7C307.796 40.1 307.779 40.4167 307.779 40.65V66H291.279V39.2C291.379 36.0667 290.046 34.5 287.279 34.5C287.012 34.5 286.746 34.5167 286.479 34.55C286.246 34.5833 285.996 34.6667 285.729 34.8C285.462 34.9333 285.246 35.0333 285.079 35.1C284.946 35.1667 284.729 35.3 284.429 35.5C284.162 35.7 283.979 35.8333 283.879 35.9C283.812 35.9667 283.612 36.1333 283.279 36.4C282.979 36.6667 282.812 36.8167 282.779 36.85V66Z" fill="#D73227"/>
<path d="M175.207 61.55L174.707 62.1C174.374 62.5 173.857 62.9667 173.157 63.5C172.49 64.0333 171.707 64.5667 170.807 65.1C169.94 65.6333 168.874 66.0833 167.607 66.45C166.34 66.85 165.04 67.05 163.707 67.05C154.707 67.05 150.207 62.6 150.207 53.7C150.207 51.9667 150.524 50.3833 151.157 48.95C151.79 47.4833 152.607 46.25 153.607 45.25C154.607 44.25 155.807 43.3667 157.207 42.6C158.607 41.8 160.007 41.1833 161.407 40.75C162.84 40.2833 164.34 39.9 165.907 39.6C167.474 39.3 168.874 39.1 170.107 39C171.34 38.9 172.524 38.85 173.657 38.85V37.95C173.657 35.9167 173.107 34.4833 172.007 33.65C170.94 32.8167 169.207 32.4 166.807 32.4C164.74 32.4 162.59 32.65 160.357 33.15C158.124 33.6167 156.374 34.1833 155.107 34.85L151.907 28.05C154.174 26.5833 157.124 25.3 160.757 24.2C164.39 23.0667 168.09 22.5 171.857 22.5C175.19 22.5 177.94 22.8333 180.107 23.5C182.274 24.1333 184.024 25.2333 185.357 26.8C186.724 28.3333 187.69 30.3 188.257 32.7C188.824 35.0667 189.107 38.0833 189.107 41.75V62.1L190.507 66H176.807L175.207 61.55ZM171.257 58.25C171.69 58.25 172.09 58.1667 172.457 58C172.857 57.8 173.157 57.6167 173.357 57.45C173.557 57.25 173.657 57.15 173.657 57.15V45.15C171.624 45.15 170.007 45.7167 168.807 46.85C167.607 47.95 167.007 49.6667 167.007 52C167.007 56.1667 168.424 58.25 171.257 58.25Z" fill="#E99923"/>
<path d="M211.652 66H195.502V33.65L192.502 31.8V26.15L203.252 23.5H207.302L208.752 35.4C210.118 27.2333 214.502 23.15 221.902 23.15C222.735 23.15 223.602 23.3 224.502 23.6L222.802 41.4C222.102 40.7667 220.568 40.45 218.202 40.45C214.802 40.45 212.618 41.35 211.652 43.15V66Z" fill="#92BA3E"/>
</svg>
